<mxfile host="drawio-plugin" modified="2023-02-23T21:10:50.612Z" agent="5.0 (Macintosh; Intel Mac OS X 13_0_1) AppleWebKit/537.36 (KHTML, like Gecko) Chrome/89.0.4389.114 Safari/537.36" version="15.5.4" etag="omICeE4uhtDc7kIMl0F-" type="embed"><diagram id="n8JfrsvoypHBCXLg3i0w" name="Page-1"><mxGraphModel dx="3073" dy="5240" grid="1" gridSize="10" guides="1" tooltips="1" connect="1" arrows="1" fold="1" page="1" pageScale="1" pageWidth="850" pageHeight="1100" math="0" shadow="0"><root><mxCell id="0"/><mxCell id="1" parent="0"/><mxCell id="9" value="DEFINES" style="rounded=0;orthogonalLoop=1;jettySize=auto;html=1;" edge="1" parent="1" source="2" target="3"><mxGeometry relative="1" as="geometry"/></mxCell><mxCell id="10" value="DEFINES" style="edgeStyle=none;rounded=0;orthogonalLoop=1;jettySize=auto;html=1;" edge="1" parent="1" source="2" target="6"><mxGeometry relative="1" as="geometry"/></mxCell><mxCell id="24" value="DEFINES" style="edgeStyle=none;rounded=0;orthogonalLoop=1;jettySize=auto;html=1;" edge="1" parent="1" source="2" target="16"><mxGeometry relative="1" as="geometry"/></mxCell><mxCell id="25" value="DEFINES" style="edgeStyle=none;rounded=0;orthogonalLoop=1;jettySize=auto;html=1;" edge="1" parent="1" source="2" target="7"><mxGeometry x="-0.3912" relative="1" as="geometry"><Array as="points"><mxPoint x="1825" y="-1630"/></Array><mxPoint as="offset"/></mxGeometry></mxCell><mxCell id="2" value="&lt;b style=&quot;color: rgb(0 , 0 , 0) ; font-size: 13px&quot;&gt;Metagraph&lt;br&gt;&lt;/b&gt;&lt;span style=&quot;color: rgb(0 , 0 , 0) ; font-size: 13px&quot;&gt;- name&lt;/span&gt;&lt;font style=&quot;font-size: 13px&quot; color=&quot;#000000&quot;&gt;&lt;br&gt;&lt;/font&gt;" style="ellipse;whiteSpace=wrap;html=1;aspect=fixed;direction=west;strokeColor=#56517e;fillColor=#d0cee2;" vertex="1" parent="1"><mxGeometry x="2075" y="-2200" width="120" height="120" as="geometry"/></mxCell><mxCell id="11" value="HAS_TYPE" style="edgeStyle=none;rounded=0;orthogonalLoop=1;jettySize=auto;html=1;" edge="1" parent="1" source="3" target="7"><mxGeometry relative="1" as="geometry"/></mxCell><mxCell id="17" value="SUBCLASS_OF" style="edgeStyle=none;rounded=0;orthogonalLoop=1;jettySize=auto;html=1;" edge="1" parent="1" source="3" target="16"><mxGeometry relative="1" as="geometry"/></mxCell><mxCell id="3" value="&lt;b&gt;&lt;font style=&quot;font-size: 13px&quot; color=&quot;#000000&quot;&gt;NodeDef&lt;br&gt;&lt;/font&gt;&lt;/b&gt;&lt;span style=&quot;color: rgb(0 , 0 , 0) ; font-size: 13px&quot;&gt;- name&lt;/span&gt;&lt;font color=&quot;#000000&quot;&gt;&lt;br&gt;&lt;/font&gt;" style="ellipse;whiteSpace=wrap;html=1;aspect=fixed;direction=west;strokeColor=#9673a6;fillColor=#CCFF99;" vertex="1" parent="1"><mxGeometry x="1875" y="-1700" width="120" height="120" as="geometry"/></mxCell><mxCell id="4" value="REL_SOURCE" style="edgeStyle=none;html=1;" edge="1" parent="1" source="6" target="3"><mxGeometry relative="1" as="geometry"><Array as="points"><mxPoint x="2155" y="-1690"/></Array></mxGeometry></mxCell><mxCell id="5" value="REL_TARGET" style="edgeStyle=none;html=1;" edge="1" parent="1" source="6" target="3"><mxGeometry relative="1" as="geometry"><Array as="points"><mxPoint x="2145" y="-1570"/></Array></mxGeometry></mxCell><mxCell id="13" value="HAS_TYPE" style="edgeStyle=none;rounded=0;orthogonalLoop=1;jettySize=auto;html=1;" edge="1" parent="1" source="6" target="7"><mxGeometry relative="1" as="geometry"/></mxCell><mxCell id="22" value="REL_SOURCE" style="edgeStyle=none;rounded=0;orthogonalLoop=1;jettySize=auto;html=1;" edge="1" parent="1" source="6" target="16"><mxGeometry relative="1" as="geometry"><Array as="points"><mxPoint x="2225" y="-1720"/></Array></mxGeometry></mxCell><mxCell id="23" value="REL_TARGET" style="edgeStyle=none;rounded=0;orthogonalLoop=1;jettySize=auto;html=1;" edge="1" parent="1" source="6" target="16"><mxGeometry x="0.0309" y="4" relative="1" as="geometry"><Array as="points"><mxPoint x="2275" y="-1760"/></Array><mxPoint as="offset"/></mxGeometry></mxCell><mxCell id="6" value="&lt;b&gt;&lt;font style=&quot;font-size: 13px&quot; color=&quot;#000000&quot;&gt;RelDef&lt;br&gt;&lt;/font&gt;&lt;/b&gt;&lt;span style=&quot;color: rgb(0 , 0 , 0) ; font-size: 13px&quot;&gt;- name&lt;/span&gt;&lt;b&gt;&lt;font style=&quot;font-size: 13px&quot; color=&quot;#000000&quot;&gt;&lt;br&gt;&lt;/font&gt;&lt;/b&gt;" style="ellipse;whiteSpace=wrap;html=1;aspect=fixed;direction=west;strokeColor=#9673a6;fillColor=#CCFF99;" vertex="1" parent="1"><mxGeometry x="2305" y="-1700" width="120" height="120" as="geometry"/></mxCell><mxCell id="14" value="HAS_PROPERTY" style="edgeStyle=none;rounded=0;orthogonalLoop=1;jettySize=auto;html=1;" edge="1" parent="1" source="7" target="8"><mxGeometry relative="1" as="geometry"/></mxCell><mxCell id="7" value="&lt;font color=&quot;#000000&quot;&gt;&lt;b style=&quot;font-size: 13px&quot;&gt;Type&lt;/b&gt;&lt;br&gt;&lt;span style=&quot;font-size: 13px&quot;&gt;- name&lt;/span&gt;&lt;br&gt;&lt;/font&gt;" style="ellipse;whiteSpace=wrap;html=1;aspect=fixed;direction=west;fillColor=#ffe6cc;strokeColor=#d79b00;" vertex="1" parent="1"><mxGeometry x="2095" y="-1460" width="120" height="120" as="geometry"/></mxCell><mxCell id="8" value="&lt;font style=&quot;font-size: 13px&quot; color=&quot;#000000&quot;&gt;&lt;b&gt;Property&lt;br&gt;&lt;/b&gt;&lt;/font&gt;&lt;span style=&quot;color: rgb(0 , 0 , 0) ; font-size: 13px&quot;&gt;- name&lt;br&gt;&lt;/span&gt;&lt;span style=&quot;color: rgb(0 , 0 , 0) ; font-size: 13px&quot;&gt;- type&lt;/span&gt;&lt;font style=&quot;font-size: 13px&quot; color=&quot;#000000&quot;&gt;&lt;br&gt;&lt;/font&gt;" style="ellipse;whiteSpace=wrap;html=1;aspect=fixed;direction=west;strokeColor=#d79b00;fillColor=#FF9999;" vertex="1" parent="1"><mxGeometry x="2095" y="-1260" width="120" height="120" as="geometry"/></mxCell><mxCell id="19" value="HAS_TYPE" style="rounded=0;orthogonalLoop=1;jettySize=auto;html=1;" edge="1" parent="1" source="16" target="7"><mxGeometry x="-0.0975" y="-1" relative="1" as="geometry"><Array as="points"><mxPoint x="2145" y="-1650"/></Array><mxPoint as="offset"/></mxGeometry></mxCell><mxCell id="16" value="&lt;b&gt;&lt;font style=&quot;font-size: 13px&quot; color=&quot;#000000&quot;&gt;AbstractNodeDef&lt;br&gt;&lt;/font&gt;&lt;/b&gt;&lt;span style=&quot;color: rgb(0 , 0 , 0) ; font-size: 13px&quot;&gt;- name&lt;/span&gt;&lt;font color=&quot;#000000&quot;&gt;&lt;br&gt;&lt;/font&gt;" style="ellipse;whiteSpace=wrap;html=1;aspect=fixed;direction=west;strokeColor=#9673a6;fillColor=#CCFF99;" vertex="1" parent="1"><mxGeometry x="2085" y="-1890" width="120" height="120" as="geometry"/></mxCell><mxCell id="21" value="SUBCLASS_OF" style="edgeStyle=none;rounded=0;orthogonalLoop=1;jettySize=auto;html=1;" edge="1" parent="1" source="16" target="16"><mxGeometry relative="1" as="geometry"><Array as="points"><mxPoint x="2145" y="-1930"/></Array></mxGeometry></mxCell></root></mxGraphModel></diagram></mxfile>